<svg xmlns="http://www.w3.org/2000/svg" width="35.419" height="40" viewBox="0 0 35.419 40">
  <g id="business" transform="translate(-29.317)">
    <g id="Group_39" data-name="Group 39" transform="translate(39.56 0)">
      <path id="Path_31" data-name="Path 31" d="M168.472,6.423a11.7,11.7,0,0,1,8.046,3.168V7.461A7.461,7.461,0,0,0,169.057,0h-1.17a7.461,7.461,0,0,0-7.461,7.461V9.591A11.7,11.7,0,0,1,168.472,6.423Z" transform="translate(-160.427)" fill="#fd4755"/>
    </g>
    <g id="Group_40" data-name="Group 40" transform="translate(39.56 0)">
      <path id="Path_32" data-name="Path 32" d="M163.8,7.382a7.461,7.461,0,0,1,6.36-7.3,7.518,7.518,0,0,0-1.1-.081h-1.17a7.461,7.461,0,0,0-7.461,7.461V9.591A11.725,11.725,0,0,1,163.8,7.382Z" transform="translate(-160.427 0)" fill="#fb2b3a"/>
    </g>
    <path id="Path_33" data-name="Path 33" d="M131.09,296.85a.163.163,0,0,1,.163-.163h2.4v-1.029a.164.164,0,0,1,.163-.163H136.3l.034-.078v-2.785a2.208,2.208,0,0,0-2.207-2.207H115.006a2.208,2.208,0,0,0-2.207,2.207v.8l.058.078h7.758a.164.164,0,0,1,.163.163v6.547h2.405a.244.244,0,0,1,.244.244v7.167l.078.1h7.506l.078-.1Z" transform="translate(-76.96 -267.735)" fill="#fd4755"/>
    <g id="Group_41" data-name="Group 41" transform="translate(35.839 22.689)">
      <path id="Path_34" data-name="Path 34" d="M116.147,293.429v-.8a2.208,2.208,0,0,1,2.207-2.207h-3.349a2.208,2.208,0,0,0-2.207,2.207v.8Z" transform="translate(-112.798 -290.423)" fill="#fb2b3a"/>
    </g>
    <path id="Path_35" data-name="Path 35" d="M256.607,315.534a.156.156,0,0,1-.223,0l-.475-.483v4.079a.586.586,0,1,0,1.172,0v-4.079Z" transform="translate(-208.89 -290.438)" fill="#e41f2d"/>
    <g id="Group_42" data-name="Group 42" transform="translate(42.677 20.297)">
      <path id="Path_36" data-name="Path 36" d="M204.8,264.252l-1.84-1.872a.722.722,0,0,1-.208-.509v-2.062l-2.419,2.392v3.084h.979a.163.163,0,0,1,.163.163v.956Z" transform="translate(-200.329 -259.808)" fill="#fb2b3a"/>
      <path id="Path_37" data-name="Path 37" d="M271.35,259.808v2.062a.722.722,0,0,1-.209.509l-1.84,1.872,4.1,2.65a.241.241,0,0,0,.373-.2v-4.5Z" transform="translate(-263.913 -259.808)" fill="#fb2b3a"/>
    </g>
    <path id="Path_38" data-name="Path 38" d="M202.67,262.782V260.8l-2.341,2.315V266.2h.979a.164.164,0,0,1,.163.163v.956l.514-.332v-3.056l.778-.769A.8.8,0,0,1,202.67,262.782Z" transform="translate(-157.652 -240.422)" fill="#e41f2d"/>
    <path id="Path_39" data-name="Path 39" d="M234.613,258.475h-3.466a4.343,4.343,0,0,1-.854-.085v2.173a.805.805,0,0,0,.231.564l2.189,2.227a.234.234,0,0,0,.334,0l2.189-2.227a.805.805,0,0,0,.231-.564V258.39A4.336,4.336,0,0,1,234.613,258.475Z" transform="translate(-185.275 -238.203)" fill="#ffbd86"/>
    <path id="Path_40" data-name="Path 40" d="M232.518,260.564v-2.088h-1.372a4.343,4.343,0,0,1-.854-.085v2.173a.8.8,0,0,0,.231.564l2.189,2.227a.234.234,0,0,0,.334,0l.946-.962-1.243-1.265A.8.8,0,0,1,232.518,260.564Z" transform="translate(-185.274 -238.204)" fill="#f6a96c"/>
    <g id="Group_43" data-name="Group 43" transform="translate(38.687 11.187)">
      <path id="Path_41" data-name="Path 41" d="M152.1,147.937v-4.748h-.166q-.206.184-.4.38a1.2,1.2,0,0,1-1.56.116,2.053,2.053,0,0,0-.72,1.563v.767a2.059,2.059,0,0,0,2.059,2.059h.794C152.1,148.028,152.1,147.983,152.1,147.937Z" transform="translate(-149.253 -143.189)" fill="#f6a96c"/>
      <path id="Path_42" data-name="Path 42" d="M343.194,143.684a1.2,1.2,0,0,1-1.56-.116q-.2-.2-.4-.38h-.166v4.748c0,.046,0,.091,0,.136h.794a2.059,2.059,0,0,0,2.059-2.059v-.767A2.054,2.054,0,0,0,343.194,143.684Z" transform="translate(-326.077 -143.189)" fill="#ffbd86"/>
    </g>
    <path id="Path_43" data-name="Path 43" d="M190.864,112.907a9.32,9.32,0,0,0-6.148,2.288v4.825a4.415,4.415,0,0,0,4.415,4.415H192.6a4.415,4.415,0,0,0,4.415-4.415V115.2A9.32,9.32,0,0,0,190.864,112.907Z" transform="translate(-143.258 -104.086)" fill="#fed2a4"/>
    <path id="Path_44" data-name="Path 44" d="M187.227,128.589V122.2a9.318,9.318,0,0,0-2.511,1.562v4.825A4.415,4.415,0,0,0,189.131,133h2.511A4.415,4.415,0,0,1,187.227,128.589Z" transform="translate(-143.258 -112.654)" fill="#ffbd86"/>
    <g id="Group_50" data-name="Group 50" transform="translate(29.317 25.695)">
      <path id="Path_45" data-name="Path 45" d="M75.155,335.689v-6.548a.241.241,0,0,0-.241-.241H63.465a.241.241,0,0,0-.241.241v6.548Z" transform="translate(-60.575 -328.9)" fill="#01c0fa"/>
      <path id="Path_46" data-name="Path 46" d="M66.595,335.689v-6.548a.241.241,0,0,1,.241-.241H63.465a.241.241,0,0,0-.241.241v6.548Z" transform="translate(-60.575 -328.9)" fill="#08a9f1"/>
      <g id="Group_44" data-name="Group 44" transform="translate(0 6.711)">
        <path id="Path_47" data-name="Path 47" d="M46.546,422.393H29.639a.322.322,0,0,1-.322-.322v-6.95a.322.322,0,0,1,.322-.322H46.224a.322.322,0,0,1,.322.322Z" transform="translate(-29.317 -414.799)" fill="#faea5e"/>
      </g>
      <g id="Group_45" data-name="Group 45" transform="translate(0 6.711)">
        <path id="Path_48" data-name="Path 48" d="M32.695,422.071v-6.95a.322.322,0,0,1,.322-.322H29.639a.322.322,0,0,0-.322.322v6.95a.322.322,0,0,0,.322.322h3.378A.322.322,0,0,1,32.695,422.071Z" transform="translate(-29.317 -414.799)" fill="#ffd600"/>
      </g>
      <g id="Group_46" data-name="Group 46" transform="translate(2.13 8.918)">
        <path id="Path_49" data-name="Path 49" d="M58.628,446.057H56.743a.161.161,0,0,1-.161-.161v-2.68a.161.161,0,0,1,.161-.161h1.886a.161.161,0,0,1,.161.161v2.68A.161.161,0,0,1,58.628,446.057Z" transform="translate(-56.582 -443.055)" fill="#fff"/>
      </g>
      <g id="Group_49" data-name="Group 49" transform="translate(4.193 1.71)">
        <g id="Group_47" data-name="Group 47">
          <path id="Path_50" data-name="Path 50" d="M85.075,351.959h-1.5a.586.586,0,0,1,0-1.172h1.5a.586.586,0,0,1,0,1.172Z" transform="translate(-82.988 -350.787)" fill="#0290cf"/>
        </g>
        <g id="Group_48" data-name="Group 48" transform="translate(0 1.854)">
          <path id="Path_51" data-name="Path 51" d="M85.075,375.694h-1.5a.586.586,0,0,1,0-1.172h1.5a.586.586,0,0,1,0,1.172Z" transform="translate(-82.988 -374.522)" fill="#0290cf"/>
        </g>
      </g>
    </g>
    <g id="Group_52" data-name="Group 52" transform="translate(38.841 6.345)">
      <g id="Group_51" data-name="Group 51">
        <path id="Path_52" data-name="Path 52" d="M167.479,86.869a1.274,1.274,0,0,1-.9-.374,9.321,9.321,0,0,0-13.167,0,1.277,1.277,0,0,1-1.807-1.807,11.879,11.879,0,0,1,16.78,0,1.277,1.277,0,0,1-.9,2.181Z" transform="translate(-151.228 -81.219)" fill="#fb2b3a"/>
      </g>
    </g>
    <g id="Group_54" data-name="Group 54" transform="translate(38.841 6.345)">
      <g id="Group_53" data-name="Group 53">
        <path id="Path_53" data-name="Path 53" d="M154.975,84.69a11.8,11.8,0,0,1,6.7-3.35A11.854,11.854,0,0,0,151.6,84.69a1.277,1.277,0,0,0,1.807,1.807,9.332,9.332,0,0,1,1.2-1.011,1.271,1.271,0,0,1,.369-.8Z" transform="translate(-151.228 -81.22)" fill="#e41f2d"/>
      </g>
    </g>
    <path id="Path_54" data-name="Path 54" d="M353.356,376.653a.364.364,0,0,1,.363-.363h1.353l.032-.078V369.83a.241.241,0,0,0-.241-.241h-2.4v.774a.163.163,0,0,1-.163.163h-3.579a.163.163,0,0,1-.163-.163v-.774h-2.4a.241.241,0,0,0-.241.241v10.884h7.357l.078-.1v-3.957Z" transform="translate(-291.869 -340.715)" fill="#ea9b58"/>
    <path id="Path_55" data-name="Path 55" d="M348.484,369.589h-2.319a.241.241,0,0,0-.242.241v10.884h2.544V369.83a.239.239,0,0,1,.017-.087Z" transform="translate(-291.871 -340.715)" fill="#d88a55"/>
    <g id="Group_56" data-name="Group 56" transform="translate(61.409 35.497)">
      <g id="Group_55" data-name="Group 55" transform="translate(0)">
        <path id="Path_56" data-name="Path 56" d="M442.538,458.861h-2.444V454.8a.441.441,0,0,1,.441-.441h2a.883.883,0,0,1,.883.883v2.737A.883.883,0,0,1,442.538,458.861Z" transform="translate(-440.094 -454.358)" fill="#fed2a4"/>
      </g>
    </g>
    <path id="Path_57" data-name="Path 57" d="M441.91,454.358h-1.374a.441.441,0,0,0-.441.441v4.062h1.374V454.8A.441.441,0,0,1,441.91,454.358Z" transform="translate(-378.686 -418.861)" fill="#ffbd86"/>
    <g id="Group_57" data-name="Group 57" transform="translate(56.612 27.682)">
      <path id="Path_58" data-name="Path 58" d="M382.52,356.538h-3.579a.241.241,0,0,1-.241-.241v-1.725a.241.241,0,0,1,.241-.242h3.579a.242.242,0,0,1,.241.242V356.3A.241.241,0,0,1,382.52,356.538Z" transform="translate(-378.7 -354.33)" fill="#faea5e"/>
    </g>
    <g id="Group_58" data-name="Group 58" transform="translate(56.612 27.682)">
      <path id="Path_59" data-name="Path 59" d="M380.382,356.3v-1.725a.241.241,0,0,1,.241-.241h-1.682a.241.241,0,0,0-.241.241V356.3a.241.241,0,0,0,.241.241h1.682A.242.242,0,0,1,380.382,356.3Z" transform="translate(-378.7 -354.331)" fill="#ffd600"/>
    </g>
    <g id="Group_64" data-name="Group 64" transform="translate(44.323 11.464)">
      <g id="Group_61" data-name="Group 61">
        <g id="Group_59" data-name="Group 59">
          <path id="Path_60" data-name="Path 60" d="M221.983,148.979a.586.586,0,0,1-.586-.586v-1.069a.586.586,0,0,1,1.172,0v1.069A.586.586,0,0,1,221.983,148.979Z" transform="translate(-221.397 -146.739)" fill="#d88a55"/>
        </g>
        <g id="Group_60" data-name="Group 60" transform="translate(5.393)">
          <path id="Path_61" data-name="Path 61" d="M291.01,148.979a.586.586,0,0,1-.586-.586v-1.069a.586.586,0,0,1,1.172,0v1.069A.586.586,0,0,1,291.01,148.979Z" transform="translate(-290.424 -146.739)" fill="#d88a55"/>
        </g>
      </g>
      <g id="Group_62" data-name="Group 62" transform="translate(0.7 4.871)">
        <path id="Path_62" data-name="Path 62" d="M232.937,211.082a3.4,3.4,0,0,1-2.411-1,.586.586,0,0,1,.829-.829,2.24,2.24,0,0,0,3.164,0,.586.586,0,0,1,.829.829A3.4,3.4,0,0,1,232.937,211.082Z" transform="translate(-230.354 -209.085)" fill="#d88a55"/>
      </g>
      <g id="Group_63" data-name="Group 63" transform="translate(2.411 1.259)">
        <path id="Path_63" data-name="Path 63" d="M253.7,165.543h-.856a.586.586,0,0,1-.586-.586v-1.521a.586.586,0,0,1,1.172,0v.935h.27a.586.586,0,0,1,0,1.172Z" transform="translate(-252.261 -162.85)" fill="#d88a55"/>
      </g>
    </g>
  </g>
</svg>
