<svg xmlns="http://www.w3.org/2000/svg" width="52" height="38" viewBox="0 0 52 38">
  <g id="card" transform="translate(-4 -11)">
    <g id="Group_12" data-name="Group 12">
      <g id="Group_11" data-name="Group 11">
        <path id="Path_8" data-name="Path 8" d="M9,49H51a4.951,4.951,0,0,0,5-5V16a4.951,4.951,0,0,0-5-5H9a4.951,4.951,0,0,0-5,5V44A4.951,4.951,0,0,0,9,49Zm42-2H9a2.946,2.946,0,0,1-3-3V28H54V44A2.946,2.946,0,0,1,51,47ZM9,13H51a2.946,2.946,0,0,1,3,3v4H6V16A2.946,2.946,0,0,1,9,13Z"/>
        <path id="Path_9" data-name="Path 9" d="M16.3,32h-2a4.012,4.012,0,0,0-4,4v2a4.012,4.012,0,0,0,4,4h2a4.012,4.012,0,0,0,4-4V36A4.012,4.012,0,0,0,16.3,32Z"/>
        <rect id="Rectangle_26" data-name="Rectangle 26" width="26.5" height="2" transform="translate(23.3 34.3)"/>
        <rect id="Rectangle_27" data-name="Rectangle 27" width="21.5" height="2" transform="translate(23.3 38.3)"/>
      </g>
    </g>
  </g>
</svg>
