<svg id="cash" xmlns="http://www.w3.org/2000/svg" width="511.998" height="511.998" viewBox="0 0 511.998 511.998">
  <circle id="Ellipse_8" data-name="Ellipse 8" cx="255.999" cy="255.999" r="255.999" transform="translate(0 0)" fill="#bdd1c2"/>
  <path id="Path_23" data-name="Path 23" d="M439.466,434.52q-5.062,5.2-10.407,10.1c-.052.052-.1.094-.157.146q-6.129,5.643-12.633,10.857-9.043,7.289-18.766,13.74c-.637.428-1.275.846-1.923,1.264A254.769,254.769,0,0,1,256,512c-.93,0-1.87-.01-2.8-.021h-.627q-7.524-.094-14.932-.637-7.053-.486-13.991-1.369c-1.275-.157-2.55-.324-3.814-.512q-6.285-.877-12.466-2.079-3.7-.705-7.367-1.526c-.115-.021-.219-.052-.334-.073h-.01q-4.984-1.113-9.885-2.435l-2.32-.627q-4.608-1.269-9.132-2.727c-.972-.3-1.933-.616-2.9-.94-1.034-.334-2.058-.679-3.082-1.045-1.473-.5-2.947-1.024-4.409-1.567-1.557-.575-3.1-1.16-4.65-1.755L20.777,154.843.913,107.488,72.572,77.437,257.237,0h.01l12.706,30.292,8.861,21.138,4.723,11.254,7.147,17.053,2.017,4.817,7.21,17.178,67.741,161.551,1.735,4.138,34.2,81.544,3.365,8.014v.01l19.8,47.208Z" fill="#43c970"/>
  <path id="Path_24" data-name="Path 24" d="M416.27,455.627q-9.043,7.289-18.766,13.74c-.637.428-1.275.846-1.923,1.264A254.769,254.769,0,0,1,256,512c-.93,0-1.87-.01-2.8-.021h-.627q-7.524-.094-14.932-.637-7.053-.486-13.991-1.369c-1.275-.157-2.55-.324-3.814-.512q-6.285-.877-12.466-2.079-3.7-.705-7.367-1.526l-32.078-76.486L58.351,168.061a48.714,48.714,0,0,0,11.306-6.949A47.109,47.109,0,0,0,75.31,155.6a48.446,48.446,0,0,0,8.213-50.709l70.3-29.477,28.724-12.048,14.106-5.914c.564,1.348,1.191,2.664,1.86,3.939a48.8,48.8,0,0,0,31.054,24.366,44.747,44.747,0,0,0,4.859.951,48.143,48.143,0,0,0,25.506-3.156c.084-.031.167-.073.251-.1l.031.073,20.229,48.253,50.583,120.6,1.975,4.7,5.684,13.563,27.8,66.278v.01l22.549,53.781,13.9,33.123Z" fill="#3ab760"/>
  <circle id="Ellipse_9" data-name="Ellipse 9" cx="83.522" cy="83.522" r="83.522" transform="translate(156.929 235.809)" fill="#53d37a"/>
  <path id="Path_25" data-name="Path 25" d="M452.956,419.526c-1.755,2.121-3.542,4.2-5.381,6.259-2.623,2.978-5.339,5.893-8.108,8.735q-5.062,5.2-10.407,10.1c-.052.052-.1.094-.157.146q-6.129,5.643-12.633,10.857-9.043,7.289-18.766,13.74c-.637.428-1.275.846-1.923,1.264A254.769,254.769,0,0,1,256,512c-.93,0-1.87-.01-2.8-.021h-.627q-7.524-.094-14.932-.637-7.053-.486-13.991-1.369c-1.275-.157-2.55-.324-3.814-.512q-6.285-.877-12.466-2.079-3.7-.705-7.367-1.526c-.115-.021-.219-.052-.334-.073h-.01q-4.984-1.113-9.885-2.435l-2.32-.627-19.529-73.352L87.243,126.3,75.467,82.067,269.953,30.292l65.954-17.565,8.161-2.173,1.473,5.548,6.98,26.2,5.423,20.386,7.868,29.539,1.849,6.928,50.3,188.959,23.468,88.158.324,1.212Z" fill="#43c970"/>
  <path id="Path_26" data-name="Path 26" d="M429.059,444.624c-.052.052-.1.094-.157.146q-6.129,5.643-12.633,10.857-9.043,7.289-18.766,13.74c-.637.428-1.275.846-1.923,1.264A254.769,254.769,0,0,1,256,512c-.93,0-1.87-.01-2.8-.021h-.627q-7.524-.094-14.932-.637-7.053-.486-13.991-1.369c-1.275-.157-2.55-.324-3.814-.512l-22.831-85.744L186.1,382.766l-24.346-91.428v-.01L124.106,149.912a48.7,48.7,0,0,0,12.142-5.339,47.822,47.822,0,0,0,6.353-4.692A48.468,48.468,0,0,0,157.658,90.76l53.384-14.211,12.612-3.354L263.13,62.683,276.2,59.2c.313,1.181.669,2.341,1.076,3.48a48.373,48.373,0,0,0,10.564,17.408,49.015,49.015,0,0,0,17.105,11.64c.418.167.846.334,1.275.491a48.294,48.294,0,0,0,29.372,1.4l46.832,175.9,1.609,6.039,19.55,73.4,2.738,10.261v.01l13.834,51.984Z" fill="#3ab760"/>
  <circle id="Ellipse_10" data-name="Ellipse 10" cx="83.522" cy="83.522" r="83.522" transform="translate(200.334 241.085)" fill="#53d37a"/>
  <path id="Path_27" data-name="Path 27" d="M473.123,391.679c-.355.564-.711,1.128-1.066,1.682a256.935,256.935,0,0,1-19.1,26.164c-1.755,2.121-3.542,4.2-5.381,6.259-2.623,2.978-5.339,5.893-8.108,8.735q-5.062,5.2-10.407,10.1c-.052.052-.1.094-.157.146q-6.129,5.643-12.633,10.857-9.043,7.289-18.766,13.74c-.637.428-1.275.846-1.923,1.264A254.769,254.769,0,0,1,256,512c-.93,0-1.87-.01-2.8-.021h-.627q-7.524-.094-14.932-.637-7.053-.486-13.991-1.369c-1.275-.157-2.55-.324-3.814-.512q-6.285-.877-12.466-2.079l-10.365-83.665-4.462-35.955-15.255-123.11L158.421,112.47l-4.6-37.062-1.034-8.359,29.759-3.688,15.966-1.975,80.3-9.958L352.521,42.3l37.24-4.618,38.881-4.817,3.7,29.821,1.087,8.767,7.158,57.741L472.058,383.1Z" fill="#43c970"/>
  <path id="Path_28" data-name="Path 28" d="M447.575,425.785c-2.623,2.978-5.339,5.893-8.108,8.735q-5.062,5.2-10.407,10.1c-.052.052-.1.094-.157.146q-6.129,5.643-12.633,10.857-9.043,7.289-18.766,13.74c-.637.428-1.275.846-1.923,1.264A254.769,254.769,0,0,1,256,512c-.93,0-1.87-.01-2.8-.021h-.627q-7.524-.094-14.932-.637L224,401.218l-.345-2.748-2.288-18.442-11.64-93.884-5.224-42.2L191.723,140.893a48.741,48.741,0,0,0,12.758-3.626,47.69,47.69,0,0,0,6.928-3.783,48.456,48.456,0,0,0,21.619-46.6l1.4-.178,25.506-3.156.282-.031,27.627-3.427,2.842-.355,64.083-7.941a48.225,48.225,0,0,0,7.44,20.428,46.722,46.722,0,0,0,5.454,6.928,48.477,48.477,0,0,0,41.252,14.838L432.6,305.058l8.829,71.21.2,1.578Z" fill="#3ab760"/>
  <g id="Group_21" data-name="Group 21">
    <circle id="Ellipse_11" data-name="Ellipse 11" cx="83.522" cy="83.522" r="83.522" transform="translate(242.621 252.234)" fill="#53d37a"/>
    <path id="Path_29" data-name="Path 29" d="M501.606,62.683V328.431a254.494,254.494,0,0,1-28.484,63.248c-.355.564-.711,1.128-1.066,1.682a256.935,256.935,0,0,1-19.1,26.164c-1.755,2.121-3.542,4.2-5.381,6.259-2.623,2.978-5.339,5.893-8.108,8.735q-5.062,5.2-10.407,10.1c-.052.052-.1.094-.157.146q-6.129,5.643-12.633,10.857-9.043,7.289-18.766,13.74c-.637.428-1.275.846-1.923,1.264A254.769,254.769,0,0,1,256,512c-.93,0-1.87-.01-2.8-.021h-.627q-7.524-.094-14.932-.637-7.053-.486-13.991-1.369V62.683Z" fill="#53d37a"/>
  </g>
  <path id="Path_30" data-name="Path 30" d="M472.057,140.768V393.361a256.935,256.935,0,0,1-19.1,26.164c-1.755,2.121-3.542,4.2-5.381,6.259-2.623,2.978-5.339,5.893-8.108,8.735q-5.062,5.2-10.407,10.1c-.052.052-.1.094-.157.146q-6.129,5.643-12.633,10.857-9.043,7.289-18.766,13.74c-.637.428-1.275.846-1.923,1.264A254.769,254.769,0,0,1,256,512c-.93,0-1.87-.01-2.8-.021V376.466l-.01-81.387V140.747a48.468,48.468,0,0,0,27.251-8.976,48.43,48.43,0,0,0,19.466-30.04,50.031,50.031,0,0,0,.92-9.509H423.512a48.47,48.47,0,0,0,17.074,36.968c.752.648,1.536,1.275,2.33,1.87A48.386,48.386,0,0,0,472.057,140.768Z" fill="#43c970"/>
  <circle id="Ellipse_12" data-name="Ellipse 12" cx="83.522" cy="83.522" r="83.522" transform="translate(279.109 267.145)" fill="#53d37a"/>
</svg>
