<svg xmlns="http://www.w3.org/2000/svg" width="44.617" height="40.3" viewBox="0 0 44.617 40.3">
  <g id="cash" transform="translate(-0.579 -0.797)">
    <g id="Group_14" data-name="Group 14" transform="translate(0.763 0.947)">
      <path id="Path_13" data-name="Path 13" d="M43.918,18.457,35.782,22.7V21.324l8.824-4.59a.746.746,0,0,0,.316-1,.739.739,0,0,0-1-.311l-8.136,4.239V18.19l8.824-4.6a.742.742,0,1,0-.688-1.316l-8.136,4.234V15.132l8.673-4.51A.746.746,0,0,0,44.44,9.3L30.931,2.617a.724.724,0,0,0-.658,0L1.181,16.835a.748.748,0,0,0,0,1.341l14.549,7.066a.719.719,0,0,0,.321.075.748.748,0,0,0,.341-.085l9.386-4.891v1.381l-9.743,5.072-14.212-6.9a.741.741,0,0,0-.643,1.336l14.549,7.066a.719.719,0,0,0,.321.075.748.748,0,0,0,.341-.085l9.386-4.891v1.461l-9.743,5.072-14.212-6.9a.744.744,0,0,0-.643,1.341l14.549,7.061a.725.725,0,0,0,.321.08.7.7,0,0,0,.341-.09l9.386-4.886v1.361l-9.743,5.072L1.823,26.07a.741.741,0,0,0-.643,1.336l14.549,7.061a.663.663,0,0,0,.321.08.7.7,0,0,0,.341-.09l10.476-5.444,17.738-9.235a.745.745,0,0,0-.688-1.321Zm-17.4-.171L14.1,12.174l7.046-3.445,12.2,6ZM30.594,4.114,42.466,9.98l-7.488,3.9L22.84,7.9ZM16.041,23.74,3.2,17.5l9.21-4.5,12.46,6.132ZM29.118,18.6c.005-.005.015-.005.02-.01L34.3,15.911v7.553L27.27,27.125V19.572Z" transform="translate(-0.763 5.453)" stroke="#000" stroke-width="0.3"/>
      <path id="Path_14" data-name="Path 14" d="M11.844,10.891c6,0,10.526-2.139,10.526-4.972S17.845.947,11.844.947,1.313,3.086,1.313,5.919,5.843,10.891,11.844,10.891Zm0-8.457c5.328,0,9.04,1.838,9.04,3.485S17.172,9.4,11.844,9.4,2.8,7.566,2.8,5.919,6.516,2.434,11.844,2.434Z" transform="translate(1.45 -0.947)" stroke="#000" stroke-width="0.3"/>
      <path id="Path_15" data-name="Path 15" d="M22.1,3.64a.743.743,0,1,0-1.356-.608C20.23,4.168,16.649,5.4,11.752,5.4s-8.477-1.23-8.994-2.37A.744.744,0,1,0,1.4,3.64C2.412,5.87,7.474,6.89,11.752,6.89S21.1,5.87,22.1,3.64Z" transform="translate(1.542 5.66)" stroke="#000" stroke-width="0.3"/>
      <path id="Path_16" data-name="Path 16" d="M12.5,6.7a.741.741,0,0,0-.738-.743c-4.9,0-8.477-1.23-8.994-2.375a.754.754,0,0,0-.989-.367A.745.745,0,0,0,1.4,4.2C2.412,6.43,7.474,7.45,11.752,7.45A.746.746,0,0,0,12.5,6.7Z" transform="translate(1.542 7.912)" stroke="#000" stroke-width="0.3"/>
      <path id="Path_17" data-name="Path 17" d="M7.127,7.2a.742.742,0,0,0,.11-1.476C4.119,5.26,2.923,4.467,2.733,4.12a.744.744,0,1,0-1.306.713C2.18,6.2,4.882,6.877,7.016,7.2A.851.851,0,0,0,7.127,7.2Z" transform="translate(1.542 10.258)" stroke="#000" stroke-width="0.3"/>
      <path id="Path_18" data-name="Path 18" d="M2.691,4.6a.745.745,0,0,0-1.225.849,4.919,4.919,0,0,0,2.9,1.436.7.7,0,0,0,.176.02A.744.744,0,0,0,4.72,5.439C3,5.022,2.7,4.62,2.691,4.6Z" transform="translate(1.543 12.46)" stroke="#000" stroke-width="0.3"/>
      <ellipse id="Ellipse_7" data-name="Ellipse 7" cx="3.35" cy="1.286" rx="3.35" ry="1.286" transform="translate(19.374 18.949) rotate(-22.526)" stroke="#000" stroke-width="0.3"/>
    </g>
  </g>
</svg>
