<svg xmlns="http://www.w3.org/2000/svg" width="63.296" height="100" viewBox="0 0 63.296 100">
  <path id="kargo_bike" d="M987.083,707.919c.342.926.428.791-.271,1.349l-.184-.52c-.1-.537.086.178-.016-.331-.223.6-.2.4-.478.385-.1-.2-.552-.071.276-.954Zm-3.089,1.49c-.363-2.985.569-2.546,1.312-2.72,2.184-.5,1.035-.348,2.769.032.737.162.824-.147,1.1.52a17.566,17.566,0,0,1-.016,3.154c-1.068.038-4.135.2-4.921-.184L984,709.4Zm-16.662-18.06c.065-.834-1.7-3.327.569-5.256,2.227-1.9,4.243.032,4.9-.06.759-1.181-1.49-2.465-2.455-2.78a4.454,4.454,0,0,0-5.754,5.111c.265,1.365,1.463,3.137,2.747,2.985Zm-5.225,60.885c-.221,4.823-.026,10.138-.026,15.015,0,2.807-.385,4.6,1.408,6.3,2.9,2.753,8.557,2.541,11.1-.1,1.675-1.74,1.289-3.457,1.284-6.2-.006-4.844.228-10.23-.026-14.918l-13.748-.091Zm-6.507-5.4c.407,1.739,2.417,1.744,4.194,1.929,1.908.189,3.88.271,5.8.325a106.092,106.092,0,0,0,11.813-.249c4.351-.369,6.08-.255,4.622-6.634-1.42-6.215-3.294-12.642-9.986-14.24a12.614,12.614,0,0,0-9.7,1.6c-2.661,1.81-3.43,3.474-4.79,7.224-.835,2.3-2.531,7.553-1.946,10.052Zm11.976-66.359a7.172,7.172,0,0,1,2.937,14.04,7.221,7.221,0,0,1-8.589-5.674,7.137,7.137,0,0,1,5.647-8.367Zm-22.033,2.851c-1.761-.076-3.6-.012-5.376-.022-2.508-.011-2.839-.114-2.828,2.475.016,3.339,1.734,1.87,8.236,2.206.759,1.182.634,1.534,1.881,2.119,3.636,1.7,8.529-.249,11.645,4.167,1.718,2.433,3.431,3.067,3.951,4.075,1.593,3.072-4.032,3.034-7.435,4.08-5.89,1.8-10.984,4.026-12.669,10.946-1.772,7.294.455,21.263,1.588,28.92.558,3.777.649,10.658,2.807,12.972,2.3,2.46,9.456,1.756,9.992,1.328.709-.563.694-2.314.357-3.224-1.03-1.794-11.807.255-3.679-19.925a15.03,15.03,0,0,1,6.74-8.064,17.978,17.978,0,0,1,12.432-1.55c7.916,1.708,11.1,8.383,13.015,16.6.987,4.221,1.171,9.136-2.053,11.13-2.168,1.344-4.07.4-4.059,3.267.016,2.677,1.685,2.108,5.121,2.1,5.852-.011,6.616-2.33,7.332-7.63.579-4.3,1.176-8.664,1.707-13.026.927-7.581,2.893-19.784-.445-26.27-2.5-4.861-8.615-6.909-13.964-8.275-1.717-.439-4.806-.5-5.126-2.222a2.388,2.388,0,0,1,1.311-2.308c1.919-1.382,2.737-3.008,3.593-3.815,3.923-3.706,7.819-1.479,11.167-3.446,1.209-.709.879-.753,1.637-1.956,6.882-.368,8.231,1.171,8.215-2.411-.011-2.526-.618-2.287-3.008-2.27-1.712,0-3.467-.044-5.175.022-.363-1.312-.531-1.859-1.8-2.19-3.89-1.013-8.621,1.653-13.281-2.324A12.685,12.685,0,0,0,969,675.52a12.18,12.18,0,0,0-6.156,1.691c-5.43,3.251-2.011,3.782-11.857,3.777-3.554,0-4.736-.326-5.435,2.336Z" transform="translate(-937.34 -675.52)" fill="#fff" fill-rule="evenodd"/>
</svg>
