<svg xmlns="http://www.w3.org/2000/svg" width="42.388" height="40" viewBox="0 0 42.388 40">
  <g id="personal" transform="translate(0 -14.423)">
    <g id="Group_65" data-name="Group 65" transform="translate(31.627 32.127)">
      <path id="Path_64" data-name="Path 64" d="M382.021,228.265h10.761V232a1.683,1.683,0,0,1-1.678,1.679h-3.871l-2.309,1.166-2.9-1.166v-5.417Z" transform="translate(-382.021 -228.265)" fill="#ffe07d" fill-rule="evenodd"/>
    </g>
    <g id="Group_66" data-name="Group 66" transform="translate(31.627 26.702)">
      <path id="Path_65" data-name="Path 65" d="M383.7,162.742h7.405a1.682,1.682,0,0,1,1.678,1.679V167.2H382.022v-2.778A1.682,1.682,0,0,1,383.7,162.742Z" transform="translate(-382.022 -162.742)" fill="#ffe07d" fill-rule="evenodd"/>
    </g>
    <g id="Group_67" data-name="Group 67" transform="translate(31.627 30.322)">
      <path id="Path_66" data-name="Path 66" d="M382.022,206.463h10.761v2.64H382.022Z" transform="translate(-382.022 -206.463)" fill="#ff8086" fill-rule="evenodd"/>
    </g>
    <g id="Group_68" data-name="Group 68" transform="translate(38.464 26.702)">
      <path id="Path_67" data-name="Path 67" d="M466.282,166.361h2.246v-1.94a1.683,1.683,0,0,0-1.678-1.679H464.6a1.682,1.682,0,0,1,1.678,1.679v1.941Z" transform="translate(-464.604 -162.741)" fill="#ffc269" fill-rule="evenodd"/>
    </g>
    <g id="Group_69" data-name="Group 69" transform="translate(40.142 30.322)">
      <path id="Path_68" data-name="Path 68" d="M484.871,209.1h2.246v-2.64h-2.246v2.64Z" transform="translate(-484.871 -206.463)" fill="#f76672" fill-rule="evenodd"/>
    </g>
    <g id="Group_70" data-name="Group 70" transform="translate(38.464 32.962)">
      <path id="Path_69" data-name="Path 69" d="M466.283,238.348v2.9a1.682,1.682,0,0,1-1.678,1.679h2.246a1.677,1.677,0,0,0,1.678-1.679v-2.9h-2.246Z" transform="translate(-464.605 -238.348)" fill="#ffc269" fill-rule="evenodd"/>
    </g>
    <g id="Group_71" data-name="Group 71" transform="translate(18.824 37.544)">
      <path id="Path_70" data-name="Path 70" d="M240.18,293.7h5.212v2.4a1.048,1.048,0,0,1-1.044,1.045H227.377c0-1.507,0-2.274,1.153-2.274l2.3,0a3.226,3.226,0,0,0,2.923-1.166h6.43Z" transform="translate(-227.377 -293.7)" fill="#6f6571" fill-rule="evenodd"/>
    </g>
    <g id="Group_72" data-name="Group 72" transform="translate(11.808 40.987)">
      <path id="Path_71" data-name="Path 71" d="M151.687,335.289h14.924c.875,1.524,1.579,3.356.972,6.859-1.015-3.455-11.329-2.076-12.388,1.911h-11.38c-.43-.975-.837-1.938-1.192-2.911h3.208C152.32,338.7,150.234,339.792,151.687,335.289Z" transform="translate(-142.623 -335.289)" fill="#ffe07d" fill-rule="evenodd"/>
    </g>
    <g id="Group_73" data-name="Group 73" transform="translate(19.565 22.781)">
      <path id="Path_72" data-name="Path 72" d="M236.711,124.221a24.365,24.365,0,0,0,.863,3.308l3.281,1.285,3.658-1.285c-.128-6.922-2.715-10.242-4.915-11.316a5.34,5.34,0,0,0-1.605-.831s-1.069,1.71-1.124,1.71a9.183,9.183,0,0,0-.539,3.629Z" transform="translate(-236.326 -115.381)" fill="#eceaec" fill-rule="evenodd"/>
    </g>
    <g id="Group_74" data-name="Group 74" transform="translate(17.25 34.929)">
      <path id="Path_73" data-name="Path 73" d="M218.859,262.108h-6.939c-1.6.174-3.564,1.391-3.564,5.161v3.951l1.575.938,2.047-.938v-3.053c0-1.507,0-2.274,1.153-2.274l2.3,0a3.226,3.226,0,0,0,2.923-1.166A4.282,4.282,0,0,0,218.859,262.108Z" transform="translate(-208.357 -262.108)" fill="#ff8086" fill-rule="evenodd"/>
    </g>
    <g id="Group_75" data-name="Group 75" transform="translate(21.749 23.612)">
      <path id="Path_74" data-name="Path 74" d="M268.7,136.737c-.128-6.922-2.715-10.242-4.915-11.316a4.444,4.444,0,0,1-1.088.559c1.949,1.473,3.9,4.767,4.013,10.757Z" transform="translate(-262.702 -125.421)" fill="#dad8db" fill-rule="evenodd"/>
    </g>
    <g id="Group_76" data-name="Group 76" transform="translate(23.729 34.929)">
      <path id="Path_75" data-name="Path 75" d="M290.642,262.108h-1.99a4.282,4.282,0,0,1-.508,2.616,2.988,2.988,0,0,1-1.526,1.166h.592a3.226,3.226,0,0,0,2.923-1.166A4.283,4.283,0,0,0,290.642,262.108Z" transform="translate(-286.619 -262.108)" fill="#f76672" fill-rule="evenodd"/>
    </g>
    <g id="Group_77" data-name="Group 77" transform="translate(24.379 43.329)">
      <path id="Path_76" data-name="Path 76" d="M294.474,370.008a6.326,6.326,0,0,1,12.388-1.911,6.49,6.49,0,0,1,.278,1.708c.007.232-.152.2-.37.2Q300.623,370.008,294.474,370.008Z" transform="translate(-294.474 -363.579)" fill="#ff8086" fill-rule="evenodd"/>
    </g>
    <g id="Group_78" data-name="Group 78" transform="translate(25.972 49.758)">
      <path id="Path_77" data-name="Path 77" d="M313.718,441.231h9.641a4.823,4.823,0,0,1-9.641,0Z" transform="translate(-313.718 -441.231)" fill="#6f6571" fill-rule="evenodd"/>
    </g>
    <g id="Group_79" data-name="Group 79" transform="translate(1.38 48.73)">
      <path id="Path_78" data-name="Path 78" d="M16.777,428.81l8.295,1.909a4.256,4.256,0,1,1-8.295-1.909Z" transform="translate(-16.667 -428.81)" fill="#6f6571" fill-rule="evenodd"/>
    </g>
    <g id="Group_80" data-name="Group 80" transform="translate(0 43.893)">
      <path id="Path_79" data-name="Path 79" d="M.868,372.9A5.789,5.789,0,0,1,6.2,370.422c3.752.794,4.973,3.037,5.217,5.834a5.781,5.781,0,0,1-.128,1.144c-.024.107-.094.063-.21.036l-1.3-.3L1.489,375.23l-.621-.143-.868-.2A5.743,5.743,0,0,1,.868,372.9Z" transform="translate(0 -370.393)" fill="#eceaec" fill-rule="evenodd"/>
    </g>
    <g id="Group_81" data-name="Group 81" transform="translate(6.196 31.643)">
      <path id="Path_80" data-name="Path 80" d="M74.845,234.69,78.2,223.1l1.509-.675,1.687.675c-2.217,6.146-1.6,10.436-.1,14.529.358.973.764,1.936,1.192,2.911h-2.41Z" transform="translate(-74.845 -222.42)" fill="#ff8086" fill-rule="evenodd"/>
    </g>
    <g id="Group_82" data-name="Group 82" transform="translate(16.317 18.481)">
      <path id="Path_81" data-name="Path 81" d="M197.341,64.271l3.931-.837c.4.036,1.54.994,1.54,1.595l-.837,4.254a3.839,3.839,0,0,1-1.1.162,3.8,3.8,0,0,1-3.535-5.173Z" transform="translate(-197.085 -63.434)" fill="#ffece4" fill-rule="evenodd"/>
    </g>
    <g id="Group_83" data-name="Group 83" transform="translate(15.304 14.423)">
      <path id="Path_82" data-name="Path 82" d="M184.849,19.318a4.788,4.788,0,1,1,9.574,0,5.122,5.122,0,0,1-2.041,4.295,4.567,4.567,0,0,1-1.629.716V20.075c0-.6-.3-.721-.7-.757h-5.2Z" transform="translate(-184.849 -14.423)" fill="#ff8086" fill-rule="evenodd"/>
    </g>
    <g id="Group_84" data-name="Group 84" transform="translate(17.586 14.423)">
      <path id="Path_83" data-name="Path 83" d="M212.416,15.146a4.672,4.672,0,0,1,2.5-.723,4.84,4.84,0,0,1,4.787,4.895,5.122,5.122,0,0,1-2.041,4.295,4.442,4.442,0,0,1-1.11.566,5.567,5.567,0,0,0,1.5-3.956,5.062,5.062,0,0,0-5-5.117,4.6,4.6,0,0,0-.636.041Z" transform="translate(-212.416 -14.423)" fill="#f76672" fill-rule="evenodd"/>
    </g>
    <g id="Group_85" data-name="Group 85" transform="translate(15.01 44.041)">
      <path id="Path_84" data-name="Path 84" d="M183.547,372.171h3.622v2.282c0,.489-.266.525-.658.525h-5.2C181.21,372.689,182.595,372.171,183.547,372.171Z" transform="translate(-181.308 -372.171)" fill="#6f6571" fill-rule="evenodd"/>
    </g>
    <g id="Group_86" data-name="Group 86" transform="translate(9.588 32.318)">
      <path id="Path_85" data-name="Path 85" d="M118.866,245.1c-1.5-4.094-2.115-8.384.1-14.529h-1.7c-2.217,6.146-1.6,10.436-.1,14.529.355.973.762,1.936,1.192,2.911h1.7C119.63,247.039,119.224,246.076,118.866,245.1Z" transform="translate(-115.813 -230.574)" fill="#f76672" fill-rule="evenodd"/>
    </g>
    <g id="Group_87" data-name="Group 87" transform="translate(4.615 43.894)">
      <path id="Path_86" data-name="Path 86" d="M62.553,376.257l-5.217-5.834a5.7,5.7,0,0,0-1.588.063l5.014,5.606a5.768,5.768,0,0,1-.1.99l.254.058,1.3.3c.116.027.186.07.21-.036A5.791,5.791,0,0,0,62.553,376.257Z" transform="translate(-55.747 -370.395)" fill="#dad8db" fill-rule="evenodd"/>
    </g>
    <g id="Group_88" data-name="Group 88" transform="translate(20.871 40.987)">
      <path id="Path_87" data-name="Path 87" d="M267.026,335.289H252.1V336.6h12.262a1.817,1.817,0,0,1,1.862,1.3,6.056,6.056,0,0,1,.5,1.919A6.414,6.414,0,0,1,268,342.148C268.6,338.645,267.9,336.813,267.026,335.289Z" transform="translate(-252.102 -335.289)" fill="#ffc269" fill-rule="evenodd"/>
    </g>
    <g id="Group_89" data-name="Group 89" transform="translate(29.323 43.329)">
      <path id="Path_88" data-name="Path 88" d="M360.359,365.773a6.282,6.282,0,0,0-4.777-2.194,6.408,6.408,0,0,0-1.39.152,6.386,6.386,0,0,1,4.939,6.073c0,.16-.068.2-.184.2h2.6c.218,0,.377.029.37-.2a6.49,6.49,0,0,0-.278-1.708c0-.017-.01-.031-.014-.046v0A6.418,6.418,0,0,0,360.359,365.773Z" transform="translate(-354.192 -363.579)" fill="#f76672" fill-rule="evenodd"/>
    </g>
    <g id="Group_90" data-name="Group 90" transform="translate(1.379 48.73)">
      <path id="Path_89" data-name="Path 89" d="M24.813,430.661l-8.041-1.851a4.232,4.232,0,0,0-.106,1.135l6.382,1.469.251.058a4.231,4.231,0,0,1-1.639,2.487,4.253,4.253,0,0,0,3.406-3.24Z" transform="translate(-16.662 -428.81)" fill="#5d5360" fill-rule="evenodd"/>
    </g>
    <g id="Group_91" data-name="Group 91" transform="translate(25.972 49.758)">
      <path id="Path_90" data-name="Path 90" d="M321.823,441.23h-8.106a5,5,0,0,0,.3,1.454H321.2a4.984,4.984,0,0,1-1.182,2.976,4.923,4.923,0,0,0,3.344-4.43h-1.535Z" transform="translate(-313.717 -441.23)" fill="#5d5360" fill-rule="evenodd"/>
    </g>
    <g id="Group_92" data-name="Group 92" transform="translate(32.519 37.544)">
      <path id="Path_91" data-name="Path 91" d="M397.117,296.1v-2.4h-3.276v2.4a1.048,1.048,0,0,1-1.044,1.045h3.276A1.048,1.048,0,0,0,397.117,296.1Z" transform="translate(-392.797 -293.701)" fill="#5d5360" fill-rule="evenodd"/>
    </g>
    <g id="Group_93" data-name="Group 93" transform="translate(16.336 19.318)">
      <path id="Path_92" data-name="Path 92" d="M197.318,74.515h3.23c.4.036.7.16.7.76v3.438a3.877,3.877,0,0,0,.938-.157V74.3c0-.6-.3-.721-.7-.757h-3.931A3.8,3.8,0,0,0,197.318,74.515Z" transform="translate(-197.318 -73.545)" fill="#ffddce" fill-rule="evenodd"/>
    </g>
    <g id="Group_94" data-name="Group 94" transform="translate(7.935 28.508)">
      <path id="Path_93" data-name="Path 93" d="M96.755,184.708l4.523,1.5a4.019,4.019,0,0,1-.179,2.156H95.841v-3.329C95.841,184.374,96.182,184.519,96.755,184.708Z" transform="translate(-95.841 -184.548)" fill="#ffe07d" fill-rule="evenodd"/>
    </g>
    <g id="Group_95" data-name="Group 95" transform="translate(12.28 29.993)">
      <path id="Path_94" data-name="Path 94" d="M151.527,204.813H149.24c-1.228,0-1.264-2.037.179-2.156l2.108-.169.566,1.2Z" transform="translate(-148.327 -202.488)" fill="#ffece4" fill-rule="evenodd"/>
    </g>
    <g id="Group_96" data-name="Group 96" transform="translate(15.48 26.97)">
      <path id="Path_95" data-name="Path 95" d="M191.069,167.124l.757-.651c1.9-1.633,4.291,1.123,1.758,2.768l-2.132,1.384-1.073.7h-3.4V169l2.111-.172Z" transform="translate(-186.981 -165.974)" fill="#ff8086" fill-rule="evenodd"/>
    </g>
    <g id="Group_97" data-name="Group 97" transform="translate(12.279 31.171)">
      <path id="Path_96" data-name="Path 96" d="M151.52,217.868V216.74h-2.986a.938.938,0,0,1-.205-.019.946.946,0,0,0,.9,1.147h2.287Z" transform="translate(-148.319 -216.721)" fill="#ffddce" fill-rule="evenodd"/>
    </g>
    <g id="Group_98" data-name="Group 98" transform="translate(15.48 27.249)">
      <path id="Path_97" data-name="Path 97" d="M193.584,172.335c1.533-1,1.262-2.4.389-2.988a1.983,1.983,0,0,1-1.088,1.863l-1.661,1.077-.469.307-1.073.694h-2.7v1.128h3.4l1.073-.7Z" transform="translate(-186.981 -169.347)" fill="#f76672" fill-rule="evenodd"/>
    </g>
    <g id="Group_99" data-name="Group 99" transform="translate(10.861 29.562)">
      <path id="Path_98" data-name="Path 98" d="M133.7,197.886l-1.82-.6a2.768,2.768,0,0,0-.513,2.756h2.154a.946.946,0,0,1-.9-1.147,1.134,1.134,0,0,1,1.083-1.009Z" transform="translate(-131.194 -197.286)" fill="#ffc269" fill-rule="evenodd"/>
    </g>
  </g>
</svg>
