<svg id="pickrr" xmlns="http://www.w3.org/2000/svg" width="200" height="200" viewBox="0 0 200 200">
  <g id="_3043151858816">
    <path id="Path_7" data-name="Path 7" d="M100,0h0c55,0,100,45,100,100h0c0,55-45,100-100,100H81.761V153.572H100A53.73,53.73,0,0,0,153.572,100h0A53.73,53.73,0,0,0,100,46.428h0c-31.152,0-53.808,23.5-53.808,54.242V200H0V100C0,45,45,0,100,0Zm-.591,82.468a19.9,19.9,0,1,1-19.9,19.9A19.9,19.9,0,0,1,99.409,82.468Z" transform="translate(0 0)" fill="#008dd2" fill-rule="evenodd"/>
  </g>
</svg>
