<svg id="Capa_1" enable-background="new 0 0 512 512" height="512" viewBox="0 0 512 512" width="512" xmlns="http://www.w3.org/2000/svg" xmlns:xlink="http://www.w3.org/1999/xlink"><linearGradient id="lg1"><stop offset="0" stop-color="#43386b"/><stop offset="1" stop-color="#7662bd"/></linearGradient><linearGradient id="SVGID_1_" gradientTransform="matrix(-1 0 0 1 377.017 0)" gradientUnits="userSpaceOnUse" x1="208.055" x2="226.729" xlink:href="#lg1" y1="293.923" y2="261.578"/><linearGradient id="SVGID_2_" gradientUnits="userSpaceOnUse" x1="144.462" x2="144.462" xlink:href="#lg1" y1="399.843" y2="236.152"/><linearGradient id="lg2"><stop offset="0" stop-color="#c5baeb"/><stop offset="1" stop-color="#d7d1eb"/></linearGradient><linearGradient id="SVGID_3_" gradientUnits="userSpaceOnUse" x1="79.701" x2="300.995" xlink:href="#lg2" y1="288.547" y2="288.547"/><linearGradient id="SVGID_4_" gradientUnits="userSpaceOnUse" x1="142.35" x2="163.704" y1="116.497" y2="116.497"><stop offset="0" stop-color="#cc8241"/><stop offset="1" stop-color="#dea861"/></linearGradient><linearGradient id="SVGID_5_" gradientUnits="userSpaceOnUse" x1="117.269" x2="197.242" y1="21.504" y2="67.676"><stop offset="0" stop-color="#dea861"/><stop offset="1" stop-color="#ebcba0"/></linearGradient><linearGradient id="SVGID_6_" gradientUnits="userSpaceOnUse" x1="259.682" x2="247.411" y1="228.609" y2="207.355"><stop offset="0" stop-color="#5d3645"/><stop offset="1" stop-color="#966d7d"/></linearGradient><linearGradient id="lg3"><stop offset="0" stop-color="#ab2c37"/><stop offset="1" stop-color="#ff4757"/></linearGradient><linearGradient id="SVGID_7_" gradientUnits="userSpaceOnUse" x1="366.924" x2="344.013" xlink:href="#lg3" y1="349.503" y2="309.82"/><linearGradient id="SVGID_8_" gradientTransform="matrix(-1 0 0 1 377.017 0)" gradientUnits="userSpaceOnUse" x1="-16.467" x2="2.207" xlink:href="#lg1" y1="424.694" y2="392.349"/><linearGradient id="SVGID_9_" gradientUnits="userSpaceOnUse" x1="368.984" x2="368.984" xlink:href="#lg1" y1="530.614" y2="366.923"/><linearGradient id="SVGID_10_" gradientUnits="userSpaceOnUse" x1="404.508" x2="381.55" xlink:href="#lg2" y1="439.75" y2="399.987"/><linearGradient id="SVGID_11_" gradientUnits="userSpaceOnUse" x1="156.815" x2="146.123" xlink:href="#lg3" y1="306.034" y2="268.203"/><linearGradient id="SVGID_12_" gradientUnits="userSpaceOnUse" x1="61.92" x2="191.503" xlink:href="#lg3" y1="292.231" y2="292.231"/><linearGradient id="SVGID_13_" gradientUnits="userSpaceOnUse" x1="363.11" x2="363.11" xlink:href="#lg2" y1="357.669" y2="125.364"/><linearGradient id="SVGID_14_" gradientTransform="matrix(-1 0 0 1 351.877 0)" gradientUnits="userSpaceOnUse" x1="-58.023" x2="-54.711" xlink:href="#lg1" y1="136.012" y2="130.277"/><linearGradient id="SVGID_15_" gradientUnits="userSpaceOnUse" x1="393.632" x2="393.632" xlink:href="#lg1" y1="161.677" y2="132.719"/><linearGradient id="SVGID_16_" gradientTransform="matrix(-1 0 0 1 351.877 0)" gradientUnits="userSpaceOnUse" x1="-44.607" x2="-39.797" xlink:href="#lg3" y1="144.138" y2="135.807"/><linearGradient id="SVGID_17_" gradientUnits="userSpaceOnUse" x1="351.991" x2="362.563" xlink:href="#lg3" y1="158.724" y2="140.413"/><linearGradient id="SVGID_18_" gradientTransform="matrix(-1 0 0 1 351.877 0)" gradientUnits="userSpaceOnUse" x1="22.036" x2="26.846" xlink:href="#lg3" y1="182.079" y2="173.748"/><linearGradient id="SVGID_19_" gradientTransform="matrix(-1 0 0 1 351.877 0)" gradientUnits="userSpaceOnUse" x1="43.635" x2="46.946" xlink:href="#lg1" y1="195.446" y2="189.711"/><linearGradient id="SVGID_20_" gradientUnits="userSpaceOnUse" x1="291.975" x2="291.975" xlink:href="#lg1" y1="221.111" y2="192.153"/><g><g><path d="m114.24 252.741 26.427-15.507.001.003c7.858-4.164 17.951-3.571 28.963 2.787 25.055 14.466 45.366 53.274 45.366 86.682 0 18.366-6.148 31.259-15.839 36.758l.007.015-24.709 14.548z" fill="url(#SVGID_1_)"/><path d="m99.095 289.104c0-33.407 20.311-48.762 45.367-34.297 25.055 14.466 45.367 53.274 45.367 86.682 0 33.407-20.311 48.762-45.367 34.296-25.055-14.466-45.367-53.274-45.367-86.681z" fill="url(#SVGID_2_)"/><ellipse cx="144.462" cy="315.296" fill="#e9e5f6" rx="24.532" ry="43.363" transform="matrix(.92 -.392 .392 .92 -111.92 81.738)"/><path d="m130.072 306.988c0-10.597 6.443-15.467 14.39-10.879 7.947 4.589 14.39 16.898 14.39 27.495 0 10.596-6.443 15.467-14.39 10.878-7.947-4.588-14.39-16.897-14.39-27.494z" fill="#7662bd"/></g><path d="m268.549 416.248-77.938-45.296c-10.308-5.951-10.308-20.83 0-26.781l90.172-52.061c11.78-6.801 26.293-6.801 38.073 0l82.094 47.695z" fill="#ab2c37"/><path d="m290.651 290.726v-26.143c13.853-7.998 22.387-22.778 22.387-38.774 0-4.368-2.331-8.404-6.113-10.588l-107.789-62.232c-7.228-4.173-16.047-4.516-23.578-.919-3.375 1.612-6.571 3.482-9.6 5.549l-45.036 26.04 115.094 138.656 64.98 73.594 54.636-31.589v-35.765z" fill="#a996eb"/><path d="m290.651 264.583-54.636 31.589v26.143l54.636-31.589z" fill="#7662bd"/><path d="m300.995 395.91-221.294-128.077v-18.801c0-27.912 16.034-53.342 41.22-65.373 7.531-3.597 16.35-3.253 23.578.919l107.789 62.232c3.783 2.184 6.113 6.22 6.113 10.588 0 15.996-8.533 30.776-22.386 38.774v26.143l64.98 37.829z" fill="url(#SVGID_3_)"/><g><g><path d="m154.776 202.229c-3.563 0-7.077-.941-10.163-2.723l-61.583-35.555c-3.994-2.306-6.379-6.436-6.379-11.048s2.385-8.742 6.379-11.048l73.13-42.221c6.171-3.561 14.153-3.562 20.323 0l61.583 35.555c3.995 2.306 6.379 6.437 6.379 11.049-.001 4.612-2.385 8.741-6.379 11.047l-73.128 42.221c-3.086 1.782-6.6 2.723-10.162 2.723zm11.545-92.981c-1.4 0-2.78.37-3.993 1.07l-73.13 42.221c-.083.048-.211.122-.211.364 0 .243.128.316.211.364l61.583 35.555c2.425 1.399 5.561 1.4 7.988 0l73.128-42.221c.083-.048.211-.122.211-.364 0-.243-.128-.317-.211-.365l-61.583-35.555c-1.212-.699-2.593-1.069-3.993-1.069z" fill="#594a8e"/></g><path d="m238.276 140.013v-96.856l-155.456 6.667v96.856c0 2.219 1.098 4.439 3.294 5.707l61.583 35.555c4.38 2.529 9.776 2.529 14.156 0l73.129-42.221c2.196-1.269 3.294-3.489 3.294-5.708z" fill="url(#SVGID_4_)"/><path d="m86.115 44.117 73.129-42.221c4.38-2.529 9.776-2.529 14.156 0l61.583 35.555c4.393 2.536 4.393 8.876 0 11.412l-73.129 42.221c-4.38 2.529-9.776 2.529-14.156 0l-61.583-35.554c-4.393-2.536-4.393-8.876 0-11.413z" fill="url(#SVGID_5_)"/><path d="m109.826 30.428 78.544 45.347 20.835-12.029-78.544-45.347z" fill="#dea861"/><g fill="#cc8241"><path d="m122.279 23.232 78.544 45.347-4.082 2.356-78.543-45.347z"/><path d="m188.37 75.775v17.206l20.835-12.029v-17.206z"/></g></g><g><path d="m308.004 216.17c0-11.902-6.35-22.899-16.656-28.85l-56.669-32.718c-3.221-1.859-6.908-1.226-9.386.895l-.012-.01-39.828 23.521c-1.023.36-1.967.916-2.776 1.639l-.046.027.007.006c-1.604 1.453-2.662 3.545-2.662 6.011 0 11.902 6.35 22.899 16.657 28.85l56.669 32.718c1.324.764 7.089.437 8.595-.29 14.778-7.136 41.606-24.53 41.606-24.53.282-.142.555-.3.82-.473l.161-.093-.009-.008c2.082-1.432 3.529-3.808 3.529-6.695z" fill="url(#SVGID_6_)"/><path d="m253.303 248.259-56.669-32.718c-10.307-5.951-16.657-16.948-16.657-28.85 0-6.273 6.79-10.193 12.223-7.057l56.669 32.718c10.307 5.951 16.656 16.948 16.656 28.85 0 6.273-6.79 10.194-12.222 7.057z" fill="#5d3645"/></g><path d="m366.026 173.436-39.927 23.17c-28.289 16.417-45.7 46.651-45.7 79.359v117.646c0 9.779-4.836 17.875-11.851 22.782l132.43-76.831c7.102-4.895 12.011-13.041 12.011-22.895v-116.187c0-24.101-26.117-39.141-46.963-27.044z" fill="url(#SVGID_7_)"/><g><path d="m338.762 383.512 26.427-15.507.001.003c7.858-4.164 17.951-3.571 28.963 2.787 25.055 14.466 45.366 53.274 45.366 86.682 0 18.367-6.147 31.259-15.839 36.758l.007.015-24.709 14.548z" fill="url(#SVGID_8_)"/><path d="m323.617 419.874c0-33.407 20.311-48.762 45.367-34.297 25.055 14.466 45.367 53.274 45.367 86.682 0 33.407-20.311 48.762-45.367 34.296-25.055-14.465-45.367-53.273-45.367-86.681z" fill="url(#SVGID_9_)"/><ellipse cx="368.984" cy="446.067" fill="#e9e5f6" rx="24.532" ry="43.363" transform="matrix(.92 -.392 .392 .92 -145.196 180.09)"/><path d="m354.594 437.759c0-10.596 6.443-15.467 14.39-10.879 7.947 4.589 14.39 16.898 14.39 27.495s-6.443 15.467-14.39 10.879c-7.947-4.589-14.39-16.899-14.39-27.495z" fill="#7662bd"/></g><path d="m396.673 357.201c-13.218-7.631-25.332-8.343-34.764-3.345l-.001-.004-31.719 18.613 6.127 12.747c-1.245 5.376-1.922 11.392-1.922 18.012 0 2.663.115 5.355.324 8.065l85.117 52.633 30.244-17.46c-4.945-36.165-26.972-74-53.406-89.261z" fill="url(#SVGID_10_)"/><path d="m357.467 427.913 62.368 36.009c-5.022-36.079-27.007-73.756-53.372-88.978-30.073-17.362-54.452 1.068-54.452 41.165 0 3.885.234 7.83.675 11.804z" fill="#a996eb"/><path d="m195.286 248.573-22.583-13.039c-13.611-7.858-29.709-10.225-45.006-6.614-6.811 1.607-13.245 4.354-19.06 8.073l-24.931 14.16 4.909 5.591-8.914 11.089 37.817 21.833 47.679 54.308 23.495-13.216 18.341-24.283c5.169-6.843 7.965-15.185 7.965-23.761v-.001c-.001-14.083-7.515-27.097-19.712-34.14z" fill="url(#SVGID_11_)"/><path d="m165.196 343.974 18.341-24.283c5.169-6.843 7.965-15.185 7.965-23.761 0-14.085-7.514-27.099-19.712-34.141l-22.583-13.038c-13.611-7.858-29.709-10.225-45.006-6.615-13.369 3.155-25.302 10.681-33.908 21.387l-5.902 7.342c-4.303 5.353-2.819 13.283 3.129 16.717z" fill="url(#SVGID_12_)"/><path d="m345.126 352.885v-167.321l11.993 6.924v167.321z" fill="#a996eb"/><path d="m357.119 192.488 11.982-6.918v167.321l-11.982 6.918z" fill="url(#SVGID_13_)"/><g><g><path d="m388.285 135.654 28.545-16.593v.001c1.39-.737 3.176-.632 5.124.493 4.432 2.559 8.026 9.425 8.026 15.335 0 3.249-1.087 5.53-2.802 6.503l.001.003-28.241 16.423z" fill="url(#SVGID_14_)"/><path d="m385.606 142.087c0-5.91 3.593-8.626 8.026-6.067 4.432 2.559 8.026 9.425 8.026 15.335s-3.593 8.626-8.026 6.067c-4.433-2.56-8.026-9.425-8.026-15.335z" fill="url(#SVGID_15_)"/></g><g><path d="m379.631 135.105 12.313-7.154v.001c2.025-1.073 4.626-.92 7.463.718 6.456 3.727 11.69 13.727 11.69 22.336 0 4.733-1.584 8.055-4.081 9.471l.002.004-11.87 6.907z" fill="url(#SVGID_16_)"/></g><g><path d="m393.402 141.393-27.063-15.725-.001.002c-4.45-2.358-10.167-2.022-16.404 1.579-14.19 8.193-36.946 20.244-36.946 39.165 0 10.402 3.482 17.704 8.971 20.818l11.248 9.937 26.09 15.182z" fill="url(#SVGID_17_)"/><ellipse cx="376.285" cy="176.822" fill="#d7d1eb" rx="39.445" ry="22.316" transform="matrix(.392 -.92 .92 .392 66.246 453.828)"/><ellipse cx="376.285" cy="176.822" fill="#e9e5f6" rx="28.947" ry="16.377" transform="matrix(.392 -.92 .92 .392 66.247 453.829)"/></g><g><path d="m312.989 173.046 12.313-7.154v.001c2.025-1.073 4.625-.92 7.463.718 6.456 3.727 11.69 13.727 11.69 22.336 0 4.733-1.584 8.055-4.081 9.471l.002.004-11.87 6.907z" fill="url(#SVGID_18_)"/><ellipse cx="320.776" cy="189.165" fill="#ff7a85" rx="10.153" ry="17.946" transform="matrix(.92 -.392 .392 .92 -48.456 140.706)"/></g><g><path d="m286.628 195.088 28.545-16.592v.001c1.39-.737 3.176-.632 5.124.493 4.432 2.559 8.026 9.425 8.026 15.335 0 3.249-1.087 5.53-2.802 6.503l.001.003-28.241 16.423z" fill="url(#SVGID_19_)"/><path d="m283.948 201.521c0-5.91 3.593-8.626 8.026-6.067 4.432 2.559 8.026 9.425 8.026 15.335s-3.593 8.626-8.026 6.067c-4.432-2.56-8.026-9.425-8.026-15.335z" fill="url(#SVGID_20_)"/></g></g></g></svg>